<?xml version="1.0" standalone="no"?>
<!DOCTYPE svg PUBLIC "-//W3C//DTD SVG 20010904//EN"
 "http://www.w3.org/TR/2001/REC-SVG-20010904/DTD/svg10.dtd">
<svg version="1.0" xmlns="http://www.w3.org/2000/svg"
 width="260.000000pt" height="260.000000pt" viewBox="0 0 260.000000 260.000000"
 preserveAspectRatio="xMidYMid meet">
<metadata>
Created by potrace 1.14, written by Peter Selinger 2001-2017
</metadata>
<g transform="translate(0.000000,260.000000) scale(0.100000,-0.100000)"
fill="#000000" stroke="none">
<path d="M1670 2260 c-69 -16 -136 -31 -150 -34 -14 -3 -34 -7 -45 -10 -11 -2
-63 -14 -115 -26 -52 -11 -129 -29 -170 -40 -41 -10 -88 -21 -105 -24 -74 -13
-561 -121 -625 -139 -32 -9 -46 -19 -48 -33 -3 -22 41 -118 229 -500 110 -225
122 -245 176 -293 31 -28 62 -51 69 -51 36 0 372 196 439 257 11 10 52 44 90
75 236 191 399 439 494 748 28 92 26 95 -49 97 -42 1 -109 -9 -190 -27z"/>
<path d="M1975 2270 c-5 -9 -10 -45 -20 -160 -38 -457 -223 -841 -505 -1051
-39 -28 -70 -54 -70 -56 0 -2 15 -2 33 1 41 7 467 95 487 101 8 2 33 7 55 11
22 3 67 12 100 19 33 8 73 16 89 19 25 5 125 26 149 32 4 1 16 2 27 3 19 1 20
6 16 69 -3 37 -8 119 -11 182 -3 63 -8 138 -10 165 -3 28 -7 89 -10 137 -15
265 -69 397 -193 477 -57 36 -129 63 -137 51z"/>
<path d="M0 1942 l0 -98 33 -16 c52 -25 142 -113 191 -186 24 -37 98 -176 164
-309 137 -275 198 -376 274 -450 80 -78 213 -151 305 -168 16 -2 48 -8 73 -13
66 -12 208 -5 295 13 23 5 222 44 245 48 14 3 99 19 190 37 91 18 174 34 185
36 424 79 446 87 448 157 2 80 -53 95 -216 61 -37 -8 -180 -36 -207 -40 -14
-3 -104 -20 -200 -39 -96 -19 -191 -37 -210 -40 -19 -3 -46 -8 -60 -10 -59
-12 -77 -15 -105 -20 -16 -3 -52 -10 -80 -15 -27 -5 -63 -12 -80 -15 -16 -3
-71 -5 -122 -5 -127 0 -218 32 -319 114 -71 57 -109 116 -194 296 -147 314
-204 417 -289 520 -93 113 -174 175 -293 228 l-28 12 0 -98z"/>
<path d="M1942 760 c-158 -72 -164 -282 -10 -361 89 -46 213 -6 258 81 40 78
17 194 -51 255 -21 19 -49 35 -62 36 -12 1 -39 2 -60 3 -21 1 -55 -5 -75 -14z"/>
<path d="M1157 608 c-65 -18 -122 -89 -131 -164 -11 -87 35 -169 112 -201 42
-18 153 -19 185 -2 61 32 114 141 102 210 -9 50 -44 106 -84 133 -42 30 -126
41 -184 24z"/>
</g>
</svg>
